<?xml version="1.0" standalone="no"?>
<!DOCTYPE svg PUBLIC "-//W3C//DTD SVG 20010904//EN"
 "http://www.w3.org/TR/2001/REC-SVG-20010904/DTD/svg10.dtd">
<svg version="1.0" xmlns="http://www.w3.org/2000/svg"
 width="1480.000000pt" height="1264.000000pt" viewBox="0 0 1480.000000 1264.000000"
 preserveAspectRatio="xMidYMid meet">

<g transform="translate(0.000000,1264.000000) scale(0.100000,-0.100000)"
fill="#000000" stroke="none">
<path d="M4154 11731 c-166 -27 -293 -111 -349 -233 -30 -67 -49 -207 -42
-315 4 -71 3 -73 -20 -73 -33 0 -46 -40 -40 -122 7 -107 77 -225 126 -216 29
6 60 -129 61 -260 l0 -113 -41 -62 c-87 -129 -139 -167 -296 -212 -105 -30
-130 -40 -253 -98 -63 -29 -125 -50 -185 -61 -132 -24 -258 -88 -346 -176
-176 -177 -244 -509 -159 -781 17 -57 17 -63 0 -177 -36 -237 -44 -367 -26
-469 l16 -91 -90 -184 c-123 -253 -206 -462 -230 -577 -10 -53 -28 -168 -40
-256 -41 -322 -81 -480 -191 -760 -46 -119 -66 -157 -87 -171 -15 -9 -60 -49
-100 -87 -52 -51 -103 -87 -184 -131 -122 -66 -148 -94 -124 -131 22 -32 96
-25 190 19 43 20 81 36 83 36 15 0 -40 -137 -164 -407 -58 -128 -74 -171 -71
-200 2 -30 8 -39 25 -41 32 -5 61 33 154 205 87 163 118 210 119 183 0 -14
-22 -102 -69 -284 -23 -86 -27 -166 -11 -197 17 -31 47 -23 69 18 16 32 86
250 123 383 9 33 38 75 38 55 0 -6 -9 -84 -20 -175 -11 -91 -20 -189 -20 -218
0 -106 58 -151 89 -69 6 15 22 114 36 220 14 105 28 197 30 202 2 6 4 -33 4
-85 2 -127 17 -268 32 -286 18 -22 48 -17 59 12 6 14 10 82 10 152 0 79 8 172
20 247 11 66 28 206 39 311 l20 190 152 285 c198 370 392 758 417 834 44 130
76 360 91 655 8 161 9 166 39 214 39 61 59 119 87 259 12 60 24 106 27 101 3
-5 9 -35 13 -67 9 -80 49 -241 89 -367 29 -89 36 -129 45 -265 20 -290 17
-329 -44 -635 -31 -151 -65 -329 -76 -395 -11 -66 -41 -214 -65 -330 -58 -270
-99 -489 -118 -640 -29 -219 -19 -706 31 -1475 32 -496 23 -782 -38 -1230 -11
-80 -24 -183 -31 -230 -19 -148 3 -680 43 -1035 18 -161 22 -298 10 -342 -9
-34 -29 -58 -97 -120 -48 -43 -124 -124 -170 -180 -46 -56 -99 -112 -117 -124
-111 -79 -150 -128 -110 -143 12 -5 14 -9 5 -18 -16 -16 -15 -55 1 -65 6 -4
12 -19 12 -33 0 -16 8 -28 23 -35 12 -5 22 -17 22 -25 0 -23 20 -40 48 -40 13
0 30 -7 38 -15 23 -22 83 -18 155 11 119 48 167 95 278 271 57 90 86 113 173
138 38 11 62 24 73 41 23 35 29 115 16 199 -8 56 -8 72 3 85 11 12 12 35 4
120 -13 147 -8 184 71 540 106 473 102 448 111 850 7 325 9 367 34 495 40 209
85 427 112 545 42 177 53 242 93 570 24 195 44 265 141 505 138 343 166 453
230 905 41 293 33 266 72 267 l33 1 38 -267 c65 -458 91 -561 224 -890 112
-275 119 -303 158 -610 19 -150 46 -324 60 -385 42 -181 82 -369 121 -571 37
-189 37 -191 45 -545 8 -409 8 -407 111 -854 l72 -311 1 -180 c0 -99 4 -186 8
-192 4 -7 3 -48 -3 -90 -20 -144 3 -201 93 -227 87 -26 113 -48 191 -169 88
-136 150 -194 250 -236 82 -34 132 -39 162 -16 10 8 31 15 46 15 26 0 57 34
44 47 -3 4 4 11 17 17 12 6 24 23 25 36 2 14 11 33 19 43 13 13 14 22 5 41 -9
19 -8 27 4 36 8 7 14 16 14 21 0 10 0 9 -107 96 -39 32 -96 90 -128 128 -31
39 -107 120 -169 180 l-113 110 -6 71 c-4 43 -1 131 8 215 35 333 46 510 52
789 5 280 4 304 -21 476 -76 534 -84 751 -48 1339 38 611 44 763 46 1060 1
334 -8 416 -96 840 -27 132 -61 301 -75 375 -14 74 -56 292 -94 484 -77 386
-77 388 -55 686 12 160 18 197 46 275 35 102 72 252 91 370 l13 80 22 -114
c27 -135 56 -220 95 -278 24 -35 29 -52 29 -105 0 -188 39 -544 76 -688 27
-107 150 -360 427 -881 l162 -306 19 -184 c10 -101 25 -222 33 -269 8 -47 18
-164 23 -260 4 -96 11 -183 15 -192 4 -10 17 -18 29 -18 39 0 49 41 55 225 7
190 10 185 42 -65 12 -91 27 -180 35 -198 25 -60 65 -51 84 18 8 29 4 87 -14
241 -13 112 -22 206 -19 209 11 12 52 -106 108 -307 40 -143 77 -196 112 -160
28 28 20 113 -25 287 -58 222 -56 216 -37 200 9 -7 32 -43 52 -79 157 -290
171 -311 204 -311 25 0 41 34 33 67 -4 16 -33 85 -65 155 -66 144 -163 372
-174 406 -3 12 -3 22 1 22 3 0 43 -16 87 -36 97 -44 156 -54 180 -29 40 40 17
67 -123 145 -54 30 -131 85 -180 129 -47 42 -95 83 -107 91 -14 10 -41 65 -76
155 -121 310 -146 415 -208 865 -25 182 -42 250 -97 387 -46 113 -178 399
-221 480 l-29 52 15 68 c19 86 12 252 -17 456 l-22 148 23 87 c34 124 34 341
1 456 -80 276 -260 441 -530 486 -48 8 -110 29 -178 61 -57 27 -141 61 -186
75 -220 68 -259 93 -348 223 -49 73 -50 76 -50 150 0 61 8 98 38 187 26 77 41
109 50 106 18 -6 69 44 95 93 22 43 35 171 23 220 -6 24 -11 27 -41 23 l-35
-4 0 111 c-1 225 -23 300 -117 392 -95 92 -283 146 -429 124z m215 -36 c177
-47 276 -151 302 -317 14 -91 6 -288 -14 -348 l-15 -45 5 85 c6 98 -3 124 -67
194 l-38 41 11 56 c8 43 7 62 -4 85 -20 41 -56 42 -187 5 -59 -17 -119 -31
-132 -31 -14 0 -72 14 -129 30 -175 51 -196 41 -188 -79 l5 -76 -49 -52 -49
-52 -1 -98 -1 -98 -15 50 c-10 34 -15 95 -16 190 0 117 3 152 21 212 38 122
135 207 284 247 69 19 209 20 277 1z m-276 -265 c59 -16 122 -30 140 -30 17 0
79 14 137 30 58 17 115 30 127 30 36 0 47 -33 33 -104 l-11 -61 46 -48 c62
-65 68 -85 60 -189 l-7 -88 25 0 c22 0 26 6 32 41 8 46 35 79 65 79 18 0 20
-7 20 -71 0 -92 -15 -139 -58 -190 -33 -38 -37 -40 -49 -23 -17 23 -20 19 -43
-62 -41 -151 -78 -230 -129 -277 -78 -74 -142 -101 -231 -102 -65 0 -84 4
-141 32 -40 20 -85 53 -115 85 -45 47 -55 67 -92 179 -23 70 -42 134 -42 143
0 20 -16 21 -28 1 -7 -14 -11 -13 -34 4 -51 41 -92 182 -74 255 11 44 43 34
56 -16 6 -24 13 -51 16 -60 3 -10 14 -18 25 -18 18 0 19 8 19 106 l0 105 55
58 c51 54 55 61 45 85 -11 30 -14 119 -3 129 12 13 49 7 156 -23z m-99 -978
c86 -78 153 -107 251 -107 99 0 163 27 248 104 l57 53 0 -66 c0 -37 -23 -204
-51 -372 l-51 -306 -104 -146 c-58 -81 -108 -148 -112 -149 -4 -1 -54 65 -112
147 l-105 150 -52 308 c-38 223 -52 333 -52 402 1 89 2 93 14 64 8 -17 39 -54
69 -82z m724 -267 c31 -23 91 -48 177 -76 123 -39 325 -125 325 -138 -1 -15
-381 -126 -553 -161 -105 -22 -192 -38 -193 -37 -2 2 83 529 91 565 5 21 11
16 56 -47 27 -39 71 -87 97 -106z m-774 -121 c26 -157 46 -287 44 -289 -2 -2
-89 13 -193 35 -167 34 -526 138 -548 159 -10 10 158 87 258 118 209 64 265
98 340 207 21 31 41 56 45 56 3 0 27 -129 54 -286z m-560 -165 c105 -34 194
-64 198 -68 3 -3 -53 -46 -125 -95 l-132 -89 -167 -208 -166 -209 -172 -131
c-132 -100 -174 -128 -181 -118 -23 38 -43 170 -42 284 2 252 103 470 268 580
85 56 215 103 319 114 4 1 94 -26 200 -60z m2046 25 c289 -90 458 -367 437
-717 -6 -96 -29 -212 -46 -230 -4 -4 -84 51 -178 122 l-171 130 -166 208
c-167 208 -167 208 -294 296 -70 48 -128 91 -129 95 -1 4 82 35 185 69 210 69
225 70 362 27z m-1583 -146 l152 -31 107 -151 107 -151 1 -225 c1 -209 0 -228
-20 -270 -38 -82 -97 -122 -290 -198 -100 -40 -101 -40 -180 -31 -107 13 -244
52 -334 96 -92 45 -162 113 -288 280 l-92 122 129 159 c185 228 231 274 360
363 133 93 98 89 348 37z m1116 -37 c130 -86 173 -130 373 -377 76 -93 113
-148 108 -156 -28 -48 -201 -262 -246 -305 -95 -89 -238 -148 -436 -178 -92
-14 -94 -14 -165 12 -102 37 -231 99 -267 130 -76 64 -105 185 -98 413 l5 145
114 161 114 161 170 35 c93 20 179 37 190 37 11 1 73 -34 138 -78z m-1894
-636 l71 -94 0 -159 c0 -264 -59 -541 -134 -628 -39 -45 -275 -200 -286 -187
-4 4 -30 67 -58 138 -69 177 -79 253 -57 451 15 142 41 313 48 320 13 13 333
253 338 253 4 1 39 -42 78 -94z m2576 -34 l172 -129 13 -84 c40 -275 48 -403
29 -504 -10 -58 -103 -309 -118 -318 -4 -3 -61 29 -126 69 -145 90 -184 133
-219 244 -47 149 -65 273 -68 476 l-3 190 70 93 c38 50 72 92 74 92 2 0 82
-58 176 -129z m-2320 -242 l63 -42 -19 -31 c-12 -20 -19 -50 -19 -82 l0 -52
-94 62 -95 61 0 119 -1 120 51 -57 c27 -31 79 -75 114 -98z m936 -45 l-28 -84
-31 87 c-26 74 -28 90 -18 103 8 8 21 30 31 49 l17 34 29 -52 28 -53 -28 -84z
m1039 74 l-1 -113 -94 -62 -95 -62 0 58 c0 44 -5 65 -20 84 l-21 26 41 21 c23
12 74 52 113 90 40 38 73 70 75 70 1 0 2 -51 2 -112z m-1110 -103 c26 -83 30
-110 30 -210 l0 -115 -53 0 c-84 0 -166 -19 -239 -55 l-66 -34 -6 37 c-3 20
-8 100 -12 177 l-6 140 99 43 c55 23 124 57 154 76 29 19 57 34 61 35 4 1 21
-42 38 -94z m265 16 c44 -21 100 -47 125 -58 l45 -20 -8 -174 c-5 -96 -10
-175 -11 -176 -1 -2 -34 13 -72 32 -76 39 -146 55 -235 55 l-59 0 0 98 c0 99
20 205 54 286 l16 38 32 -22 c18 -12 69 -39 113 -59z m-828 -55 c43 -8 103
-18 134 -22 l57 -6 7 -162 c3 -88 9 -169 12 -180 5 -17 1 -18 -33 -11 -100 18
-266 113 -376 214 l-58 53 0 63 c0 47 5 68 20 88 l20 26 70 -24 c38 -13 104
-30 147 -39z m1463 -50 l0 -64 -61 -56 c-100 -93 -207 -159 -318 -197 -88 -31
-84 -37 -77 114 4 72 9 153 12 179 l6 47 56 6 c93 11 203 35 272 60 l65 23 23
-25 c18 -20 22 -36 22 -87z m-1827 -10 c42 -27 77 -53 77 -56 0 -4 -15 -14
-34 -23 -29 -13 -35 -22 -38 -53 l-3 -37 -47 59 c-38 50 -47 70 -53 118 -6 49
-5 57 6 51 8 -4 49 -31 92 -59z m2032 -9 c-5 -43 -15 -61 -56 -107 l-49 -55 0
42 c0 39 -2 42 -35 53 -19 6 -32 16 -29 22 12 19 169 116 173 107 2 -6 0 -34
-4 -62z m-1881 -113 c120 -109 286 -206 376 -222 l44 -7 -3 -130 c-1 -72 -6
-134 -11 -139 -10 -10 -254 106 -336 160 -99 66 -194 215 -194 304 0 47 2 51
33 64 17 8 34 15 36 15 1 1 26 -20 55 -45z m1754 -40 c2 -53 -1 -66 -35 -123
-56 -95 -111 -150 -202 -205 -87 -51 -279 -141 -287 -134 -2 3 -7 66 -11 141
l-6 137 26 0 c77 0 251 96 386 214 62 54 64 55 95 42 29 -12 31 -16 34 -72z
m-1929 -8 l27 -41 -23 -44 c-25 -48 -26 -47 -43 44 -6 33 -13 71 -16 84 -5 22
-3 23 11 11 9 -8 29 -32 44 -54z m2025 -35 l-17 -92 -23 41 c-13 23 -24 44
-24 47 0 10 72 104 77 100 2 -3 -4 -46 -13 -96z m-1869 -206 c66 -66 175 -131
328 -198 l99 -42 -7 -55 c-13 -113 -15 -121 -38 -114 -104 33 -306 128 -381
179 l-89 60 -34 100 c-37 111 -41 158 -16 210 l17 35 30 -57 c17 -32 58 -85
91 -118z m1827 102 c11 -35 8 -50 -26 -153 l-38 -115 -61 -45 c-77 -57 -159
-99 -309 -158 -65 -25 -119 -46 -121 -46 -3 0 -8 30 -12 68 -3 37 -9 77 -12
90 -3 15 -1 22 9 22 7 0 88 37 178 81 149 74 172 89 235 153 40 41 81 93 95
124 22 47 26 51 38 35 7 -10 18 -35 24 -56z m-1002 -121 l0 -183 -92 -6 c-77
-5 -184 -26 -269 -52 -17 -6 -17 7 -3 242 l6 91 71 36 c70 36 141 52 245 55
l42 1 0 -184z m252 154 c26 -10 67 -30 91 -44 l44 -25 7 -162 c4 -88 6 -162 4
-164 -2 -1 -46 8 -98 22 -52 13 -137 27 -187 30 l-93 6 0 185 0 185 92 -8 c51
-4 114 -15 140 -25z m-1772 -378 c0 -29 -90 -452 -126 -588 -32 -124 -147
-414 -312 -784 l-127 -285 -63 -3 -63 -3 17 38 c37 87 115 303 143 397 43 143
56 211 91 471 17 127 39 264 49 305 25 97 129 346 227 541 l76 153 44 -109
c24 -60 44 -120 44 -133z m3376 -232 c71 -171 88 -238 119 -469 58 -419 97
-569 250 -944 7 -16 2 -18 -54 -15 l-62 3 -70 155 c-108 238 -240 550 -302
710 -52 138 -109 356 -178 691 l-22 107 38 93 c20 52 42 105 47 119 10 23 17
11 94 -145 46 -93 109 -231 140 -305z m-3110 64 c-19 -215 -39 -341 -73 -447
-41 -132 -550 -1114 -575 -1110 -7 1 -47 15 -89 30 l-75 28 122 275 c146 328
274 643 307 760 22 76 72 293 125 545 l18 90 125 78 124 78 3 -73 c2 -40 -4
-154 -12 -254z m2651 246 l120 -75 33 -155 c54 -264 107 -481 140 -575 45
-125 180 -448 299 -714 56 -123 100 -225 98 -226 -12 -6 -172 -64 -173 -62
-18 27 -277 520 -389 742 -161 317 -186 379 -210 515 -33 185 -67 636 -48 629
5 -2 64 -38 130 -79z m-2221 -92 c75 -51 176 -98 327 -154 l77 -29 0 -80 c0
-44 3 -110 7 -147 l6 -68 -34 11 c-19 6 -88 37 -154 69 -106 51 -131 68 -212
146 l-92 89 -6 108 c-4 59 -4 107 0 107 3 0 40 -23 81 -52z m1753 -5 c-1 -32
-4 -84 -8 -115 -6 -57 -6 -58 -96 -138 -49 -45 -112 -94 -140 -110 -50 -28
-246 -113 -250 -108 -1 2 2 69 8 150 l11 146 110 43 c138 52 225 95 296 147
30 22 58 41 63 41 4 1 7 -25 6 -56z m-929 -197 l0 -234 -87 -7 c-86 -6 -192
-19 -264 -31 l-37 -6 -7 108 c-8 106 -1 296 11 327 3 10 44 24 112 41 146 35
139 34 210 35 l62 1 0 -234z m297 199 l111 -26 7 -75 c8 -79 3 -360 -6 -369
-3 -3 -52 2 -110 10 -57 8 -143 17 -191 20 l-88 7 0 235 0 236 83 -5 c45 -3
132 -18 194 -33z m-994 -366 c33 -21 110 -60 173 -86 l114 -48 0 -127 c0 -110
5 -154 39 -315 38 -181 93 -410 108 -449 4 -11 -29 11 -72 47 -44 36 -141 114
-215 173 -74 59 -154 130 -177 158 -23 28 -78 116 -124 195 l-82 144 23 117
c17 88 23 146 21 236 l-2 118 68 -62 c37 -35 94 -80 126 -101z m1609 44 c-3
-97 1 -139 21 -233 l25 -115 -84 -149 c-47 -82 -102 -169 -122 -194 -20 -24
-113 -106 -207 -181 -93 -75 -190 -153 -215 -173 l-46 -36 33 126 c18 70 51
214 73 320 35 169 40 209 40 326 l0 133 73 28 c144 55 241 113 323 190 44 41
81 74 84 75 3 0 4 -53 2 -117z m-749 -144 c66 -5 147 -16 180 -22 l62 -13 3
-127 c3 -138 -16 -255 -94 -576 -48 -196 -67 -241 -125 -306 -62 -67 -163
-136 -187 -128 -39 14 -146 98 -182 144 -61 77 -92 180 -169 552 -26 126 -31
170 -31 296 l0 148 69 12 c159 29 309 35 474 20z m-1015 -390 l72 -127 -19
-43 c-34 -76 -70 -216 -116 -444 -24 -121 -60 -267 -80 -325 -86 -253 -147
-483 -164 -617 -12 -97 -5 -157 73 -578 31 -165 62 -343 71 -395 16 -100 45
-414 45 -490 l-1 -45 -32 39 c-62 75 -117 151 -141 196 -24 44 -26 62 -46 410
-28 475 -37 980 -21 1120 19 163 58 382 116 660 30 140 75 368 100 505 25 138
48 256 51 264 6 19 9 15 92 -130z m1861 -86 c24 -126 58 -304 77 -398 156
-767 158 -781 157 -1110 0 -256 -11 -520 -38 -968 l-14 -227 -37 -61 c-43 -71
-153 -213 -160 -206 -6 5 12 256 27 397 6 52 41 266 79 475 93 518 96 536 81
642 -16 115 -66 303 -144 548 -38 117 -76 260 -92 345 -37 199 -88 404 -117
470 l-24 54 50 86 c28 47 62 107 76 133 14 26 27 47 31 47 3 0 24 -102 48
-227z m-1501 -302 c83 -67 152 -126 152 -131 0 -16 -125 -154 -202 -224 -56
-51 -74 -62 -76 -48 -2 9 -21 91 -43 182 -35 146 -79 379 -79 420 0 8 20 -5
48 -31 26 -26 116 -101 200 -168z m1256 187 c-27 -176 -67 -366 -122 -582 -7
-28 -9 -26 -144 113 -76 77 -138 144 -138 149 0 6 84 77 188 159 103 83 193
157 201 166 18 22 19 21 15 -5z m76 -218 c0 -131 -17 -387 -35 -528 -20 -151
-287 -1476 -318 -1577 -2 -5 -11 47 -20 117 -9 69 -23 143 -30 164 -12 35 -9
65 29 309 102 637 193 1139 248 1364 19 76 42 190 51 252 10 63 20 121 23 129
2 8 15 -19 28 -60 18 -57 24 -98 24 -170z m-1585 113 c10 -65 35 -188 55 -273
58 -235 144 -709 254 -1402 l35 -218 -18 -72 c-11 -40 -22 -107 -26 -149 -4
-42 -10 -81 -14 -88 -7 -11 -222 990 -276 1284 -54 297 -74 490 -76 737 -1
132 2 181 16 233 10 36 21 65 25 65 4 0 15 -53 25 -117z m1660 -296 c30 -152
65 -288 105 -414 114 -351 157 -549 146 -662 -4 -35 -36 -224 -71 -420 -64
-353 -65 -357 -114 -456 -28 -55 -83 -149 -123 -210 l-73 -110 -3 45 c-5 84
-33 274 -63 425 -41 213 -52 344 -45 523 5 134 14 197 70 480 87 441 116 672
116 936 0 55 2 97 5 95 2 -3 25 -107 50 -232z m-1745 5 c15 -310 36 -454 133
-917 l42 -200 0 -245 c0 -235 -2 -251 -32 -400 -34 -165 -58 -317 -70 -440
l-8 -75 -74 115 c-149 229 -155 245 -221 603 -32 174 -64 353 -71 398 -26 178
3 339 134 744 45 141 77 265 107 418 24 120 44 216 46 214 2 -1 8 -98 14 -215z
m617 -35 c25 -36 120 -123 157 -144 13 -7 12 -31 -9 -190 -36 -265 -81 -522
-110 -632 -25 -94 -207 -562 -212 -545 -1 5 -40 241 -87 524 -47 283 -97 575
-110 649 l-25 135 97 92 c53 50 119 119 146 152 l50 60 37 -30 c21 -17 51 -49
66 -71z m701 -59 l144 -146 -51 -289 c-50 -284 -131 -772 -152 -908 -19 -132
-16 -132 -75 15 -94 231 -134 342 -159 437 -28 108 -86 448 -111 652 l-18 144
30 20 c27 19 86 78 187 185 23 23 46 41 51 40 6 -2 76 -69 154 -150z m-2543
-133 c32 -9 78 -24 102 -35 42 -18 43 -20 43 -67 0 -61 -34 -361 -54 -477 -9
-49 -16 -141 -16 -206 0 -129 -7 -183 -23 -177 -18 6 -25 50 -31 215 -6 159
-10 192 -27 192 -18 0 -29 -47 -54 -236 -26 -200 -40 -257 -59 -251 -28 9 -29
77 -6 287 23 213 21 238 -13 224 -20 -7 -46 -75 -99 -259 -60 -204 -84 -255
-102 -209 -13 35 -4 99 39 268 45 179 53 230 36 241 -14 8 -67 -62 -113 -150
-74 -145 -148 -265 -163 -265 -29 0 -15 54 49 194 79 171 159 358 175 407 10
31 17 37 46 42 19 3 54 19 77 35 58 41 126 112 107 112 -8 0 -28 -14 -45 -31
-50 -53 -110 -88 -176 -103 -35 -8 -100 -31 -145 -51 -96 -42 -138 -44 -138
-5 0 21 16 34 117 90 78 43 139 86 180 126 99 96 113 104 177 104 31 0 83 -7
116 -15z m4375 -41 c36 -30 77 -68 91 -83 15 -16 67 -50 115 -76 149 -81 185
-117 130 -131 -28 -7 -73 6 -165 47 -36 16 -83 32 -105 36 -56 8 -91 27 -159
85 -75 65 -90 52 -17 -14 60 -54 99 -78 144 -87 21 -5 32 -15 39 -36 14 -44
117 -283 180 -420 64 -138 74 -170 56 -181 -19 -11 -56 39 -123 168 -78 148
-144 250 -159 245 -23 -7 -18 -54 29 -232 46 -181 57 -266 37 -286 -18 -18
-47 38 -78 149 -51 185 -96 312 -116 326 -19 13 -19 14 8 21 48 11 153 67 153
80 0 9 -24 1 -67 -21 -72 -36 -204 -74 -260 -74 -18 0 -33 -5 -33 -11 0 -12
98 -7 149 7 16 5 22 4 18 -4 -4 -5 4 -105 17 -222 24 -205 23 -268 -3 -285
-24 -15 -39 51 -81 376 -14 100 -24 123 -44 96 -9 -12 -15 -66 -19 -185 -6
-175 -11 -212 -32 -212 -15 0 -25 87 -25 224 0 56 -6 135 -14 176 -16 81 -56
428 -56 480 0 27 6 34 44 50 69 31 146 49 216 49 65 1 65 1 130 -55z m-2864
-1384 l76 -355 -17 -125 c-28 -215 -40 -255 -95 -312 -39 -40 -53 -49 -76 -46
-39 4 -63 55 -77 159 -12 97 6 257 60 532 29 149 36 213 41 352 3 94 6 166 8
160 2 -5 38 -170 80 -365z m1243 -156 c53 -288 65 -391 58 -494 -9 -128 -36
-190 -83 -190 -14 0 -41 19 -72 50 -55 56 -60 70 -92 290 l-20 135 78 362 77
362 7 -147 c4 -106 18 -209 47 -368z m-1628 -249 c29 -49 79 -130 112 -179 46
-68 62 -104 73 -155 18 -84 40 -115 87 -119 28 -2 43 4 73 30 37 32 37 32 32
8 -28 -130 -109 -542 -119 -605 -9 -58 -19 -85 -35 -102 -31 -31 -44 -29 -97
11 -63 48 -81 56 -125 56 -48 0 -53 6 -82 94 -13 39 -32 85 -43 103 -28 49
-21 159 15 233 15 30 23 59 19 63 -5 5 -22 -18 -37 -50 -23 -46 -30 -75 -33
-141 -2 -68 -6 -82 -18 -78 -8 3 -22 6 -31 6 -16 0 -17 28 -18 315 l-1 315 20
-32 c28 -47 140 -188 172 -218 l27 -25 -6 55 c-3 30 -8 100 -11 155 -8 136
-25 316 -32 340 -8 30 0 19 58 -80z m1930 4 c-15 -124 -33 -399 -29 -436 l3
-32 60 70 c33 39 80 99 104 135 25 35 46 63 47 61 2 -1 -2 -77 -8 -167 -5 -91
-7 -231 -4 -312 6 -141 5 -148 -13 -148 -11 0 -26 -3 -35 -6 -14 -5 -16 5 -16
72 0 67 -5 89 -30 142 -16 35 -34 61 -39 57 -6 -3 2 -28 17 -57 34 -66 45
-217 18 -247 -9 -10 -27 -50 -41 -91 -31 -91 -39 -100 -87 -100 -46 0 -68 -10
-122 -57 -22 -18 -46 -33 -55 -33 -23 0 -71 51 -71 76 0 40 -104 581 -126 657
-5 15 3 12 37 -12 83 -61 135 -28 159 102 8 40 30 83 94 181 46 70 97 152 112
181 16 30 30 52 32 51 1 -2 -2 -41 -7 -87z m-2070 -888 c22 -23 28 -44 38
-122 28 -232 33 -313 36 -604 4 -389 36 -740 96 -1039 24 -118 39 -268 29
-279 -4 -5 -25 3 -46 17 -22 13 -51 28 -66 31 -15 4 -31 12 -37 18 -13 16 -76
314 -100 477 -28 188 -48 386 -65 660 -21 327 -22 473 -3 635 9 77 19 164 23
194 l6 53 31 -6 c18 -3 44 -19 58 -35z m2253 27 c2 -7 14 -110 26 -228 21
-200 21 -230 11 -435 -14 -261 -37 -546 -57 -705 -33 -260 -107 -632 -127
-639 -6 -2 -41 -19 -76 -38 -35 -18 -66 -33 -69 -33 -9 0 11 197 28 280 56
259 90 617 100 1060 8 360 26 599 52 678 15 50 102 96 112 60z m-170 -323 c-9
-76 -15 -226 -14 -360 0 -232 -12 -462 -34 -655 l-12 -105 -7 110 c-24 391
-30 471 -48 562 -25 128 -68 275 -112 380 l-34 81 27 5 c15 3 46 22 69 41 45
38 81 52 106 42 18 -7 65 13 65 27 0 6 2 8 4 6 2 -2 -3 -62 -10 -134z m-1944
102 c31 6 53 -4 117 -53 25 -19 54 -34 65 -34 12 0 18 -5 15 -12 -64 -147
-112 -295 -142 -441 -22 -109 -44 -391 -46 -577 l-2 -155 -12 100 c-27 203
-37 386 -37 610 1 127 -5 306 -13 400 -8 93 -15 173 -15 178 0 4 10 1 21 -7
13 -9 33 -13 49 -9z m230 -677 c-11 -111 -37 -244 -119 -608 -28 -123 -51
-226 -52 -230 -1 -4 -5 9 -11 28 -5 19 -12 134 -15 255 -6 235 13 527 43 686
22 116 78 297 122 393 l37 81 3 -250 c2 -138 -2 -297 -8 -355z m1464 506 c117
-274 164 -595 153 -1062 -3 -132 -9 -252 -14 -269 l-10 -30 -7 45 c-4 25 -34
164 -67 310 -97 428 -100 452 -106 799 -4 202 -2 302 4 298 6 -4 27 -45 47
-91z m-1954 -701 c23 -279 58 -515 114 -780 14 -66 26 -123 26 -126 0 -4 -19
-9 -42 -13 -24 -3 -53 -8 -64 -12 -21 -5 -21 -2 -27 123 -3 70 -15 220 -26
333 -30 307 -45 615 -37 790 10 244 19 250 32 25 7 -110 18 -263 24 -340z
m2454 453 c19 -162 3 -573 -40 -1027 -15 -160 -22 -285 -18 -317 l6 -53 -48
15 c-26 8 -58 14 -72 14 -21 0 -23 3 -17 28 41 159 97 483 120 694 21 195 45
526 45 621 0 88 14 103 24 25z m-2209 -1422 c24 -15 47 -31 50 -36 4 -6 11
-50 17 -98 9 -71 9 -95 -3 -132 -14 -43 -16 -46 -80 -66 -36 -12 -77 -29 -92
-39 -14 -9 -65 -75 -112 -145 -93 -141 -139 -183 -244 -226 -73 -29 -112 -31
-135 -5 -20 22 -15 27 49 51 48 19 132 121 98 120 -5 0 -21 -19 -37 -41 -19
-27 -45 -48 -82 -64 -30 -13 -57 -31 -60 -40 -9 -21 -44 -19 -44 3 0 25 18 46
67 76 44 27 81 72 69 83 -4 4 -20 -10 -37 -30 -17 -20 -36 -37 -43 -37 -7 0
-25 -11 -40 -25 -28 -26 -51 -32 -60 -16 -10 16 3 36 35 55 49 29 99 77 99 94
0 12 -9 8 -32 -14 -46 -43 -93 -74 -112 -74 -32 0 -14 31 44 76 33 26 57 51
54 56 -5 8 -58 -24 -69 -42 -7 -12 -55 -13 -55 -2 0 8 64 63 118 101 18 12 64
62 104 109 110 135 296 312 343 328 57 20 137 11 190 -20z m2096 21 c34 -11
71 -40 166 -133 67 -65 149 -152 182 -192 52 -65 164 -166 214 -193 10 -6 15
-14 12 -20 -11 -17 -42 -9 -80 21 -43 34 -45 35 -45 18 0 -7 27 -33 60 -58 63
-47 70 -57 45 -66 -16 -7 -72 26 -118 70 -32 30 -37 32 -37 11 0 -8 32 -38 70
-67 45 -32 70 -57 68 -67 -4 -22 -39 -27 -50 -7 -5 9 -23 23 -41 32 -18 9 -44
30 -59 47 -14 18 -30 29 -33 25 -11 -11 34 -67 68 -84 48 -24 67 -45 67 -71 0
-29 -35 -32 -43 -4 -3 12 -23 25 -54 35 -39 13 -57 27 -82 61 -18 25 -36 45
-42 45 -15 0 -11 -10 25 -59 26 -35 47 -51 85 -65 56 -20 55 -19 41 -47 -14
-26 -63 -25 -131 3 -117 48 -159 87 -263 245 -77 117 -107 143 -192 168 -85
25 -99 65 -80 228 7 64 10 69 44 91 75 47 128 55 203 33z"/>
<path d="M2124 6125 c-12 -64 17 -279 40 -303 15 -14 15 11 0 74 -9 38 -17
111 -19 162 -3 101 -10 124 -21 67z"/>
<path d="M1862 5879 c16 -52 358 -156 358 -109 0 6 -12 10 -27 10 -59 1 -171
31 -243 67 -41 20 -79 39 -84 41 -5 3 -7 -2 -4 -9z"/>
<path d="M6317 6047 c-3 -61 -12 -137 -20 -167 -16 -56 -15 -72 3 -54 28 28
55 314 31 328 -4 3 -11 -45 -14 -107z"/>
<path d="M3536 3668 c-21 -73 -67 -142 -115 -174 -46 -30 -45 -54 1 -27 62 37
123 131 143 221 11 53 -12 37 -29 -20z"/>
<path d="M4905 3670 c21 -78 67 -151 119 -189 26 -18 50 -30 54 -26 4 3 -7 16
-23 28 -17 12 -41 33 -54 47 -30 31 -81 137 -81 168 0 12 -6 22 -14 22 -12 0
-12 -7 -1 -50z"/>
<path d="M10423 11630 c-105 -19 -183 -59 -255 -130 -59 -59 -69 -74 -89 -141
-18 -61 -23 -99 -23 -211 -1 -136 -1 -138 -23 -138 -12 0 -27 -9 -33 -19 -15
-29 -12 -120 6 -180 19 -65 87 -145 115 -136 14 5 19 1 19 -11 0 -9 14 -57 31
-106 l31 -90 -22 -82 c-26 -95 -77 -200 -121 -250 -38 -44 -123 -85 -248 -120
-51 -15 -144 -51 -207 -80 -66 -32 -134 -57 -166 -61 -218 -30 -399 -155 -487
-336 -65 -135 -84 -220 -84 -379 0 -111 4 -149 23 -215 27 -94 27 -98 7 -235
-9 -58 -21 -157 -27 -220 -28 -308 -70 -481 -171 -717 -125 -289 -126 -292
-185 -728 -31 -235 -77 -402 -186 -677 -40 -101 -56 -131 -79 -146 -17 -10
-60 -48 -98 -85 -47 -45 -103 -85 -180 -127 -121 -67 -150 -95 -131 -129 21
-40 93 -35 185 11 22 12 52 24 68 29 28 8 29 7 22 -19 -8 -31 -78 -195 -171
-399 -51 -111 -65 -151 -62 -180 2 -30 8 -39 24 -41 31 -4 67 44 157 210 89
166 117 210 117 187 0 -9 -20 -97 -45 -195 -48 -188 -56 -272 -29 -298 36 -37
64 -1 104 134 60 202 102 330 110 335 13 8 13 6 -10 -185 -23 -190 -25 -259
-9 -294 21 -46 60 -41 80 11 5 12 20 112 34 220 15 109 28 200 31 202 2 2 4
-38 4 -90 0 -124 16 -267 31 -285 18 -22 52 -13 60 16 4 14 7 82 8 151 1 70 8
165 16 212 13 73 42 319 58 487 3 34 39 110 146 310 78 146 207 394 285 552
157 313 173 358 202 586 26 206 31 233 82 467 28 127 61 290 73 364 14 83 26
127 30 115 4 -11 18 -80 32 -155 15 -74 44 -189 65 -255 36 -110 40 -133 51
-297 16 -263 14 -336 -15 -472 -14 -66 -50 -253 -80 -415 -30 -162 -76 -398
-103 -525 -111 -519 -125 -648 -118 -1080 6 -316 12 -466 52 -1134 8 -139 15
-308 15 -375 0 -174 -32 -502 -80 -836 -31 -215 -25 -526 22 -1010 42 -444 41
-460 -39 -537 -40 -38 -64 -53 -83 -53 -15 0 -39 -9 -53 -20 -14 -11 -34 -20
-45 -20 -11 0 -29 -11 -40 -24 -10 -13 -32 -26 -48 -28 -35 -4 -44 -36 -20
-74 16 -23 22 -24 116 -24 113 0 145 -9 180 -51 34 -40 118 -55 222 -39 93 14
137 36 163 80 17 30 20 53 21 160 0 77 5 136 13 155 11 25 10 46 -4 129 -11
59 -15 116 -11 144 3 26 37 186 76 357 105 472 102 444 110 845 7 339 8 362
38 520 34 179 86 430 126 606 14 61 42 235 61 385 19 151 42 299 51 329 9 30
55 154 104 275 146 367 164 436 225 880 46 327 42 310 60 295 12 -10 18 -10
30 0 19 16 20 15 40 -150 27 -222 84 -554 115 -663 16 -57 71 -209 123 -338
52 -130 102 -262 111 -293 9 -31 32 -177 51 -324 38 -299 35 -281 98 -562 26
-113 63 -293 83 -400 36 -193 37 -198 44 -555 9 -405 7 -387 105 -820 91 -396
92 -403 71 -530 -17 -102 -17 -107 1 -138 15 -26 17 -40 10 -77 -4 -25 -6 -79
-4 -121 6 -129 46 -169 190 -189 104 -15 182 -1 217 38 38 42 71 52 180 52 94
0 100 1 116 24 24 38 15 70 -20 74 -16 2 -38 15 -48 28 -11 13 -29 24 -40 24
-11 0 -31 9 -45 20 -14 11 -39 20 -55 20 -16 0 -31 6 -35 15 -3 9 -18 22 -33
30 -16 8 -39 31 -52 52 -20 33 -23 50 -23 138 0 55 10 201 22 325 49 484 56
839 23 1056 -82 541 -90 801 -47 1499 40 643 52 1022 38 1190 -14 171 -53 398
-125 745 -30 146 -76 380 -101 520 -25 140 -57 303 -70 362 -37 160 -39 198
-25 445 13 227 13 228 57 363 24 74 56 202 71 284 27 148 27 150 35 101 17
-97 88 -452 122 -605 19 -85 41 -218 50 -295 22 -202 45 -287 126 -457 62
-132 280 -555 446 -863 l59 -110 18 -185 c10 -102 24 -221 33 -265 8 -44 18
-161 23 -260 4 -99 11 -188 15 -197 11 -26 42 -22 61 8 14 21 19 60 23 197 7
192 10 187 42 -58 11 -93 27 -185 35 -203 25 -60 65 -51 84 19 9 34 -6 215
-35 424 -12 81 22 13 65 -130 72 -240 90 -292 111 -311 40 -36 75 21 63 101
-3 22 -26 118 -50 214 -25 96 -43 179 -41 184 4 13 52 -67 131 -214 76 -144
111 -191 139 -187 43 6 43 47 2 139 -87 196 -203 466 -209 487 -4 12 -4 22 -1
22 4 0 43 -16 86 -35 106 -46 147 -53 179 -27 21 17 23 24 15 48 -8 21 -35 41
-122 88 -67 37 -134 83 -170 116 -32 31 -79 73 -105 94 -44 35 -51 49 -107
189 -107 275 -137 393 -186 740 -19 137 -41 277 -49 311 -17 72 -73 216 -146
375 -70 153 -117 356 -140 604 -6 62 -20 181 -32 266 -20 144 -20 156 -5 205
29 94 40 186 34 300 -10 207 -74 365 -196 487 -103 103 -227 163 -379 184 -32
4 -102 30 -175 65 -67 32 -165 70 -217 84 -118 33 -173 59 -216 103 -44 44
-106 167 -133 266 l-21 78 24 42 c13 23 34 70 46 105 15 41 27 61 36 58 19 -7
61 30 91 81 21 36 27 63 31 124 6 107 0 129 -38 129 l-31 0 7 118 c10 183 -19
285 -107 374 -81 81 -195 126 -339 133 -47 2 -108 0 -137 -5z m221 -25 c155
-33 272 -118 317 -232 21 -51 23 -74 22 -199 0 -127 -4 -158 -38 -298 l-37
-157 -92 -112 c-129 -158 -210 -206 -320 -193 -66 7 -122 43 -198 125 -136
146 -148 168 -184 318 -18 75 -36 171 -39 212 -9 96 9 255 34 315 74 171 309
269 535 221z m-579 -638 c40 -158 61 -258 54 -262 -50 -32 -134 187 -103 269
9 25 43 19 49 -7z m983 -64 c-5 -93 -25 -149 -67 -187 -19 -17 -23 -18 -36 -5
-12 12 -10 31 16 138 16 68 32 127 35 132 3 5 17 9 31 9 l25 0 -4 -87z m-144
-245 c-3 -13 -19 -52 -35 -87 -25 -54 -31 -62 -44 -51 -12 10 -15 10 -15 -1 0
-21 57 -229 67 -243 4 -6 0 -3 -9 7 -10 11 -35 54 -55 97 -38 79 -61 104 -48
53 10 -42 69 -144 117 -204 24 -28 57 -71 74 -93 39 -53 121 -97 242 -130 90
-26 271 -100 313 -129 19 -14 19 -15 -23 -35 -71 -34 -135 -44 -293 -45 -172
-2 -264 16 -339 64 -53 33 -129 132 -185 239 -37 71 -111 258 -111 279 0 6 18
15 39 21 65 17 132 71 221 178 46 56 86 102 88 102 2 0 0 -10 -4 -22z m-594
-159 c51 -52 88 -80 115 -88 22 -7 46 -14 52 -16 27 -9 -90 -286 -172 -410
-80 -121 -164 -167 -334 -186 -137 -16 -321 1 -397 35 -30 14 -54 28 -54 31 0
14 231 115 318 139 156 44 195 68 284 175 62 75 168 248 168 275 0 23 -22 -5
-54 -66 -20 -40 -46 -84 -56 -98 l-20 -25 14 35 c12 30 54 180 59 215 1 6 -5
9 -14 7 -14 -2 -25 23 -56 128 -2 8 13 -5 33 -30 21 -25 72 -79 114 -121z
m253 -197 c39 -117 116 -272 178 -355 56 -74 110 -116 181 -140 54 -19 188
-37 271 -37 53 0 58 -2 51 -17 -71 -161 -117 -423 -129 -738 -7 -178 -20 -276
-50 -393 -42 -157 -82 -231 -187 -341 -71 -74 -105 -119 -143 -191 -37 -69
-69 -114 -123 -167 -40 -40 -79 -73 -88 -73 -9 0 -49 32 -90 71 -52 51 -85 94
-114 149 -46 89 -87 144 -192 256 -65 69 -78 91 -110 175 -54 141 -76 265 -88
495 -17 347 -55 575 -121 730 l-17 41 113 6 c207 11 296 48 388 162 70 88 171
297 213 443 9 33 31 4 57 -76z m-1037 -467 c44 -30 90 -44 167 -52 45 -5 62
-11 77 -30 20 -25 75 -181 67 -189 -2 -2 -49 -11 -103 -19 -152 -22 -228 -44
-291 -82 -116 -69 -157 -129 -180 -260 -18 -107 -40 -151 -96 -197 -51 -42
-206 -136 -224 -136 -16 0 -40 87 -54 198 -20 155 12 325 88 477 73 144 233
262 408 299 95 20 99 19 141 -9z m2168 -2 c166 -41 310 -159 384 -313 61 -129
77 -202 77 -360 0 -132 -22 -271 -46 -286 -13 -7 -133 58 -202 110 -85 63
-103 93 -122 199 -21 116 -43 163 -104 220 -86 80 -173 114 -370 141 -57 8
-105 16 -106 18 -7 7 48 165 66 189 16 22 28 27 86 32 49 5 86 16 133 41 71
37 92 38 204 9z m-1840 -320 c29 -148 44 -289 56 -525 12 -256 47 -421 117
-561 13 -27 22 -52 18 -55 -3 -3 -46 -8 -94 -10 l-89 -4 -20 38 c-10 22 -34
84 -52 139 -18 55 -48 126 -67 157 -102 170 -140 292 -151 483 -8 134 -12 158
-40 222 -17 40 -28 74 -24 77 27 15 212 52 329 65 6 0 14 -11 17 -26z m1451
12 c71 -9 224 -45 230 -54 2 -5 -10 -41 -27 -82 -29 -68 -32 -87 -38 -224 -8
-156 -13 -178 -75 -325 -15 -36 -45 -96 -67 -133 -22 -38 -55 -112 -72 -165
-18 -54 -43 -116 -55 -139 l-21 -43 -64 0 c-35 0 -77 3 -94 6 l-31 6 18 37
c72 141 108 306 121 546 13 249 47 547 66 577 3 5 18 7 32 4 15 -2 50 -8 77
-11z m-1790 -145 c23 -55 28 -87 35 -210 5 -80 12 -154 16 -164 6 -15 4 -17
-7 -11 -11 7 -214 174 -263 216 -14 13 3 73 34 121 32 48 139 134 151 121 4
-4 19 -37 34 -73z m2147 11 c49 -44 88 -111 88 -152 0 -20 -28 -48 -134 -137
-127 -106 -157 -128 -139 -99 4 6 10 77 14 157 5 134 8 151 39 222 l32 77 27
-13 c14 -8 47 -32 73 -55z m-2224 -325 l147 -124 34 -84 c19 -45 54 -118 78
-161 24 -43 61 -128 82 -190 21 -62 41 -119 45 -128 6 -15 2 -16 -39 -8 -25 5
-66 17 -91 28 -94 42 -244 158 -244 189 0 10 -43 127 -95 260 -94 242 -94 243
-83 293 6 27 13 49 15 49 2 0 70 -56 151 -124z m2336 59 c6 -35 -5 -71 -89
-284 -52 -134 -95 -251 -95 -260 0 -23 -131 -125 -215 -166 -38 -19 -92 -39
-118 -44 -43 -8 -47 -7 -41 8 4 9 26 68 48 131 23 63 59 146 80 184 22 38 58
111 80 163 l41 93 145 120 c97 81 146 116 151 107 4 -6 10 -30 13 -52z m-2431
-303 l86 -222 -29 -168 c-34 -190 -101 -519 -131 -636 -18 -68 -41 -129 -56
-146 -15 -16 -23 44 -23 170 0 287 -43 397 -144 369 -74 -21 -136 -136 -191
-359 -34 -138 -37 -145 -45 -130 -4 8 -15 50 -24 92 -17 77 -17 77 8 156 35
113 73 315 91 493 15 149 41 343 51 384 3 13 33 34 80 59 88 45 188 118 211
153 9 13 19 20 23 16 4 -4 46 -108 93 -231z m2597 113 c36 -23 89 -54 118 -69
28 -14 52 -31 52 -36 0 -6 7 -54 15 -108 8 -53 21 -169 30 -257 20 -196 55
-392 91 -508 l27 -87 -18 -85 c-10 -47 -21 -87 -25 -90 -4 -2 -21 51 -38 118
-63 255 -133 379 -215 379 -89 0 -115 -75 -126 -355 -3 -103 -10 -178 -16
-180 -14 -3 -35 45 -56 128 -52 198 -159 741 -159 805 0 14 39 125 87 248 l87
222 40 -41 c23 -23 70 -61 106 -84z m-2275 -545 c83 -41 159 -53 298 -47 l118
5 83 -93 c47 -53 99 -124 121 -166 52 -100 87 -150 147 -210 27 -27 49 -52 47
-54 -2 -1 -32 -19 -67 -40 -83 -48 -174 -125 -202 -170 -12 -19 -31 -70 -41
-112 -26 -105 -99 -221 -198 -318 l-41 -39 0 77 c0 96 -10 120 -96 235 -38 50
-104 147 -146 214 -77 123 -77 123 -83 208 -4 54 -19 123 -40 190 -48 148
-105 394 -105 452 0 4 33 -18 73 -48 39 -30 99 -68 132 -84z m1910 88 c-14
-109 -56 -287 -91 -388 -26 -76 -38 -131 -44 -200 l-7 -95 -82 -129 c-45 -72
-109 -165 -142 -209 -89 -118 -94 -129 -94 -230 l0 -89 -57 61 c-100 106 -167
218 -187 309 -23 109 -81 178 -226 267 -44 27 -82 50 -84 51 -2 2 13 17 33 34
52 46 120 140 168 232 29 56 68 108 125 169 l84 87 112 -5 c64 -3 137 -1 172
6 79 14 185 68 260 130 33 27 62 50 63 50 2 1 1 -23 -3 -51z m-2461 -327 c34
-38 47 -111 52 -286 6 -207 10 -234 33 -243 18 -7 17 -12 -10 -104 -54 -181
-136 -347 -250 -502 -28 -37 -53 -66 -56 -63 -3 3 0 51 6 107 6 55 11 155 11
221 0 129 -10 163 -74 248 -23 31 -24 36 -11 60 7 15 26 81 40 147 67 297 135
434 215 434 15 0 35 -9 44 -19z m2923 -13 c57 -60 97 -168 153 -409 17 -73 35
-138 41 -145 8 -10 -1 -32 -36 -88 -41 -67 -47 -83 -52 -149 -5 -68 11 -345
23 -392 13 -53 -143 170 -203 290 -42 83 -94 217 -118 301 -17 60 -16 63 2 81
18 18 20 40 26 204 9 257 33 339 100 339 24 0 41 -9 64 -32z m-3274 -345 c4
-21 16 -66 27 -101 19 -57 19 -64 5 -92 -12 -23 -13 -34 -3 -55 6 -14 9 -26 7
-28 -2 -2 -27 -20 -55 -40 -29 -20 -79 -67 -113 -103 -46 -48 -61 -60 -57 -42
3 13 12 57 21 98 8 41 40 136 71 210 31 74 61 147 67 163 15 37 23 34 30 -10z
m3613 -149 c48 -119 102 -309 91 -321 -2 -2 -20 16 -40 40 -20 24 -70 70 -111
101 -69 54 -74 60 -64 81 8 18 7 32 -5 57 -14 31 -14 37 9 103 13 39 24 79 24
91 0 33 13 37 27 9 8 -13 38 -86 69 -161z m-1754 119 c154 -95 206 -155 229
-263 20 -96 87 -205 196 -321 36 -38 64 -70 62 -72 -2 -1 -39 -20 -82 -42
-155 -79 -280 -213 -386 -415 -74 -141 -84 -173 -90 -290 -6 -104 -6 -105 -31
-105 -25 0 -25 0 -26 95 0 87 -3 103 -38 185 -78 185 -201 361 -314 450 -31
25 -91 62 -132 83 -41 20 -77 38 -79 39 -2 2 29 37 68 79 111 116 179 231 196
331 9 54 51 121 106 165 55 45 200 137 217 137 7 1 54 -25 104 -56z m-916
-155 c47 -73 106 -158 130 -190 60 -77 74 -115 74 -197 0 -108 8 -105 -143
-55 -73 24 -139 44 -147 44 -40 1 -42 13 -20 121 18 86 21 131 18 257 -1 83
-2 152 -1 152 1 0 41 -59 89 -132z m1717 -10 c-5 -122 -2 -158 16 -247 11 -57
21 -110 21 -117 0 -7 -19 -18 -42 -24 -37 -10 -232 -73 -265 -86 -18 -8 -28
102 -15 164 8 40 28 76 80 147 38 51 100 141 137 199 38 58 69 106 71 106 1 0
0 -64 -3 -142z m466 -243 c61 -152 192 -363 274 -443 l33 -32 -12 108 c-7 59
-15 154 -18 212 l-6 105 45 -125 c179 -493 203 -545 353 -770 l111 -165 -37
-6 c-20 -3 -59 -16 -85 -28 -27 -13 -50 -21 -53 -19 -13 13 -157 328 -214 467
-37 90 -70 158 -74 152 -10 -15 81 -235 185 -449 86 -178 88 -183 66 -191 -12
-5 -25 -6 -28 -2 -13 13 -278 516 -409 776 -153 301 -171 349 -200 518 -26
157 -24 171 9 62 15 -49 42 -126 60 -170z m-2668 96 c-25 -150 -54 -225 -187
-488 -121 -239 -397 -759 -416 -786 -11 -15 -16 -16 -31 -5 -17 13 -13 24 57
168 96 198 208 470 192 470 -6 0 -38 -66 -71 -147 -46 -116 -205 -456 -220
-471 -1 -2 -28 9 -60 23 -32 14 -69 25 -82 25 -33 0 -33 0 79 166 51 76 117
184 145 239 48 94 136 321 214 550 l34 100 3 -52 c2 -29 -4 -119 -12 -200 -9
-80 -14 -148 -12 -150 7 -7 98 102 152 183 80 120 145 256 190 398 21 68 40
118 42 110 2 -7 -6 -67 -17 -133z m-378 12 c43 -68 42 -77 -27 -275 -163 -468
-190 -527 -356 -777 -92 -139 -118 -171 -137 -171 l-23 0 21 53 c137 342 183
509 219 787 12 91 26 175 32 186 24 52 212 234 240 234 4 0 18 -17 31 -37z
m3459 -13 c63 -48 125 -113 161 -170 9 -14 24 -91 37 -180 39 -285 90 -478
195 -741 25 -61 45 -113 45 -115 0 -2 -10 -4 -22 -4 -19 0 -46 36 -140 179
-65 98 -138 220 -162 272 -80 172 -246 639 -246 693 0 28 44 116 58 116 4 0
37 -23 74 -50z m-2661 -267 c47 -13 58 -20 53 -32 -29 -73 -161 -445 -193
-548 -62 -196 -73 -256 -76 -395 l-3 -127 -41 -47 c-22 -26 -41 -41 -41 -33 0
21 38 216 76 393 19 87 59 292 89 455 67 357 66 351 71 351 2 0 31 -8 65 -17z
m1833 0 c3 -10 28 -144 56 -298 28 -154 71 -374 95 -490 60 -283 83 -405 76
-405 -3 1 -23 22 -44 48 l-37 47 -4 135 c-3 102 -11 158 -30 230 -23 88 -145
450 -214 636 l-30 82 52 15 c69 20 74 20 80 0z m-1646 -59 c53 -20 137 -57
187 -83 154 -79 288 -233 391 -447 65 -137 74 -179 63 -315 -12 -159 -13 -162
-77 -220 -79 -73 -191 -124 -334 -154 -158 -32 -291 -99 -427 -214 -29 -24
-66 -62 -81 -83 l-27 -37 -22 72 c-31 105 -38 161 -51 372 -16 288 -4 363 118
725 41 120 90 257 143 398 5 12 11 22 14 22 3 0 50 -16 103 -36z m1591 -231
c173 -484 189 -564 172 -872 -6 -108 -14 -214 -17 -236 -6 -41 -42 -184 -51
-198 -3 -5 -29 18 -58 51 -62 68 -172 147 -282 202 -85 41 -116 52 -238 74
-105 20 -229 82 -300 149 l-56 52 -10 90 c-17 143 -8 246 31 335 103 238 252
416 423 506 83 43 279 115 289 105 4 -4 48 -120 97 -258z m-2920 -708 c47 -19
90 -40 95 -45 12 -12 -15 -312 -45 -490 -11 -66 -19 -164 -19 -231 0 -128 -7
-182 -23 -176 -19 6 -27 57 -32 212 -7 174 -10 195 -29 195 -17 0 -27 -47 -51
-235 -21 -172 -33 -231 -49 -244 -10 -8 -16 -5 -24 15 -16 34 -15 82 8 274 26
216 26 222 -2 218 -28 -4 -48 -50 -113 -268 -58 -191 -72 -225 -91 -209 -24
20 -16 93 31 275 47 181 55 244 32 244 -20 0 -48 -43 -143 -217 -81 -149 -117
-203 -136 -203 -22 0 -1 68 71 229 110 247 158 361 166 399 8 40 10 40 -120
-13 -126 -51 -165 -54 -165 -15 0 22 26 41 145 105 62 33 116 72 171 126 85
80 94 85 189 87 36 1 73 -8 134 -33z m4294 12 c12 -8 56 -46 97 -84 50 -46
111 -89 182 -128 109 -59 127 -77 106 -102 -15 -18 -60 -11 -137 24 -45 20
-136 52 -149 53 -13 0 62 -188 178 -445 79 -174 83 -185 71 -204 -8 -12 -12
-12 -25 -2 -17 14 -77 118 -151 259 -56 106 -96 159 -113 148 -19 -12 -14 -46
33 -230 43 -169 57 -278 35 -291 -5 -3 -16 5 -24 17 -15 23 -23 47 -95 287
-22 73 -47 144 -56 157 -16 25 -39 31 -50 15 -3 -6 4 -90 16 -188 24 -207 26
-271 10 -302 -10 -17 -15 -20 -26 -11 -15 12 -27 75 -55 295 -21 165 -26 185
-46 185 -18 0 -22 -37 -27 -215 -4 -140 -14 -195 -36 -195 -12 0 -21 89 -21
212 0 58 -9 157 -19 220 -28 165 -56 457 -45 468 5 4 47 25 94 45 78 33 91 35
158 31 40 -2 83 -11 95 -19z m-2368 -269 c-29 -201 -65 -401 -91 -498 -21 -77
-116 -335 -128 -347 -2 -2 -11 56 -20 129 -22 169 -66 379 -111 537 -20 68
-34 125 -31 128 2 2 35 11 73 20 89 19 217 81 273 131 30 27 46 35 48 26 2 -7
-4 -64 -13 -126z m350 21 c33 -16 96 -38 139 -49 44 -11 81 -22 83 -24 2 -2
-14 -70 -36 -151 -46 -167 -82 -344 -106 -520 -9 -66 -18 -121 -20 -123 -7 -7
-111 286 -135 383 -27 103 -100 533 -100 583 0 20 5 18 57 -25 32 -25 85 -59
118 -74z m-1336 -55 c8 -116 18 -174 42 -255 l31 -104 -17 -185 c-9 -102 -25
-259 -36 -350 -12 -110 -19 -236 -19 -380 -1 -272 -10 -352 -48 -399 -15 -19
-32 -34 -37 -33 -10 2 -32 334 -54 802 -24 509 -8 867 41 950 26 42 79 112 83
108 2 -2 8 -71 14 -154z m2248 64 c77 -128 85 -456 32 -1393 -11 -209 -23
-382 -26 -385 -10 -11 -63 62 -74 102 -6 24 -15 179 -20 358 -4 173 -12 347
-18 385 -5 39 -19 169 -30 290 l-21 220 30 100 c24 78 33 135 42 257 l12 158
21 -20 c11 -10 34 -43 52 -72z m-1713 -169 c-82 -190 -160 -409 -194 -541 -23
-86 -37 -236 -75 -788 -21 -298 -31 -395 -50 -473 -44 -180 -126 -315 -244
-401 -27 -20 -50 -36 -52 -36 -2 0 -4 135 -4 299 l0 300 32 33 c63 65 66 82
74 423 5 202 14 369 27 480 11 94 26 233 32 310 7 77 19 152 26 167 35 67 129
149 262 228 64 38 192 93 200 85 1 -1 -14 -40 -34 -86z m1206 31 c126 -63 267
-175 309 -244 15 -25 24 -79 41 -261 11 -126 25 -264 31 -305 6 -41 14 -217
19 -390 5 -173 13 -331 19 -351 6 -19 28 -55 48 -79 l38 -44 0 -298 c0 -164
-1 -298 -3 -298 -2 0 -30 20 -62 45 -101 78 -158 161 -208 305 -39 111 -48
175 -72 520 -51 726 -55 758 -107 930 -31 102 -106 300 -162 429 -22 52 -41
96 -41 97 0 6 108 -34 150 -56z m-1142 -45 c6 -22 29 -118 52 -214 l40 -173
-33 -72 c-113 -236 -182 -506 -208 -811 -12 -140 -8 -283 17 -549 15 -158 15
-175 -1 -258 -10 -48 -21 -88 -25 -88 -11 0 -108 152 -137 216 -27 59 -56 203
-48 237 3 12 18 213 35 447 42 598 47 642 80 765 44 165 197 564 210 548 4 -5
12 -26 18 -48z m1042 -72 c120 -290 173 -469 190 -635 19 -189 72 -942 73
-1028 1 -118 -26 -199 -109 -328 -37 -57 -70 -100 -74 -95 -15 17 -42 182 -36
219 13 82 36 394 36 500 0 315 -82 699 -208 968 l-40 85 49 208 c51 215 55
233 63 233 2 0 27 -57 56 -127z m-915 -486 c9 -73 15 -153 12 -178 -3 -24 -26
-102 -51 -174 -40 -115 -48 -153 -71 -335 -14 -113 -32 -248 -40 -300 -15 -95
-75 -363 -80 -358 -2 2 -11 104 -20 228 -15 189 -16 248 -6 380 16 221 46 380
107 575 32 101 113 295 124 295 4 0 15 -60 25 -133z m827 -67 c117 -309 167
-676 139 -1020 -14 -180 -23 -262 -27 -258 -5 6 -64 268 -74 335 -6 37 -24
173 -41 302 -25 206 -34 248 -70 350 -67 192 -65 174 -45 332 9 79 20 147 23
152 8 14 48 -67 95 -193z m-1239 -1395 c20 -38 57 -97 82 -130 25 -33 43 -66
40 -75 -2 -8 -14 -67 -26 -130 -19 -98 -23 -168 -29 -470 -7 -341 -16 -445
-49 -565 l-8 -30 -51 54 c-144 153 -169 325 -117 806 28 263 71 627 81 690 l7
40 16 -60 c10 -33 34 -91 54 -130z m1651 -165 c65 -562 69 -604 69 -740 1
-149 -20 -250 -70 -342 -29 -53 -118 -156 -127 -147 -3 3 -15 59 -27 125 -18
98 -23 181 -29 479 -7 300 -12 377 -29 465 -11 58 -21 114 -21 126 0 11 18 45
41 75 51 68 125 213 135 265 12 65 21 20 58 -306z m-1768 164 c-29 -224 -75
-649 -87 -799 -13 -171 -20 -186 -121 -281 -45 -43 -141 -104 -163 -104 -14 0
-3 248 19 403 14 95 32 237 41 317 26 248 17 221 90 274 35 26 84 69 108 96
41 45 117 183 117 211 0 7 2 10 5 7 4 -3 -1 -59 -9 -124z m1879 -91 c20 -23
67 -66 106 -94 38 -29 71 -61 74 -73 2 -12 11 -91 20 -176 9 -85 27 -234 40
-330 23 -159 35 -420 20 -420 -3 0 -27 11 -54 24 -60 31 -150 112 -189 171
-26 39 -30 57 -36 147 -10 142 -85 837 -102 938 -4 26 6 11 40 -55 24 -49 61
-109 81 -132z m-1949 -1018 c22 -94 77 -197 142 -263 l53 -55 -55 -243 c-83
-360 -83 -361 -62 -487 17 -106 17 -108 -3 -140 -16 -27 -18 -39 -11 -72 29
-122 -1 -244 -64 -270 -100 -42 -263 -37 -300 10 -34 40 -85 55 -190 55 -84 0
-97 2 -106 19 -16 31 -12 41 19 41 20 0 34 8 45 25 10 16 26 25 41 25 14 0 34
9 46 21 11 11 30 19 43 17 13 -1 37 10 62 30 38 32 39 32 48 11 6 -13 6 -45
-2 -91 -11 -64 -10 -90 3 -77 14 15 30 137 22 170 -7 30 -4 45 12 78 26 50 28
159 6 348 -13 120 -36 406 -50 640 l-6 102 58 30 c73 36 141 92 190 155 l38
49 3 -29 c1 -16 9 -60 18 -99z m2043 3 c29 -26 79 -60 112 -75 l60 -28 -6
-120 c-9 -191 -24 -384 -46 -605 -23 -222 -21 -335 6 -377 13 -19 15 -37 10
-73 -7 -50 12 -170 26 -170 12 0 11 15 -2 83 -6 30 -9 67 -5 81 6 23 8 24 32
11 14 -7 32 -22 40 -33 9 -13 21 -18 38 -15 16 3 31 -2 45 -16 12 -12 32 -21
46 -21 15 0 31 -9 41 -25 11 -17 25 -25 45 -25 21 0 29 -5 29 -18 0 -34 -21
-42 -117 -42 -104 0 -155 -15 -188 -56 -36 -44 -203 -50 -299 -10 -63 26 -88
118 -67 251 8 57 8 72 -4 85 -21 23 -22 43 -6 157 17 122 14 143 -64 484 l-54
235 57 61 c83 86 152 242 152 340 0 45 10 46 40 5 14 -20 50 -58 79 -84z"/>
<path d="M7935 80 c-4 -6 -3 -16 3 -22 6 -6 12 -6 17 2 4 6 3 16 -3 22 -6 6
-12 6 -17 -2z"/>
<path d="M8136 53 c-3 -10 -8 -23 -11 -29 -8 -15 21 -25 51 -18 26 7 33 24 9
24 -8 0 -15 9 -15 20 0 25 -25 27 -34 3z"/>
<path d="M7008 33 c-16 -2 -28 -10 -28 -16 0 -9 25 -13 85 -13 86 0 102 6 65
26 -14 8 -26 8 -41 -1 -15 -8 -24 -8 -32 0 -6 6 -13 10 -16 10 -4 -1 -18 -4
-33 -6z"/>
<path d="M7200 22 c-22 -18 -22 -18 29 -18 55 0 66 11 25 26 -32 13 -28 13
-54 -8z"/>
<path d="M7351 31 c-8 -5 -20 -7 -28 -4 -7 3 -13 -1 -13 -10 0 -11 13 -14 55
-13 59 0 70 11 29 26 -30 12 -26 12 -43 1z"/>
<path d="M7482 29 c-41 -15 -29 -26 28 -26 41 0 60 4 60 13 0 14 -60 23 -88
13z"/>
<path d="M7624 30 c-42 -17 -34 -27 21 -26 59 0 70 11 29 26 -14 6 -26 10 -27
9 -1 0 -12 -4 -23 -9z"/>
<path d="M7771 31 c-8 -5 -20 -7 -28 -4 -7 3 -13 -1 -13 -9 0 -12 17 -15 89
-14 67 0 87 4 84 13 -5 12 -25 18 -48 13 -20 -4 -40 -2 -55 4 -8 3 -21 2 -29
-3z"/>
<path d="M8018 33 c-16 -2 -28 -10 -28 -17 0 -9 17 -13 57 -13 l57 0 -23 18
c-13 11 -26 18 -30 18 -3 -1 -18 -4 -33 -6z"/>
<path d="M7940 15 c0 -8 5 -15 10 -15 6 0 10 7 10 15 0 8 -4 15 -10 15 -5 0
-10 -7 -10 -15z"/>
</g>
</svg>
